<?xml version="1.0" encoding="UTF-8" standalone="no"?>
<!-- Created with Inkscape (http://www.inkscape.org/) -->

<svg
   xmlns:dc="http://purl.org/dc/elements/1.1/"
   xmlns:cc="http://creativecommons.org/ns#"
   xmlns:rdf="http://www.w3.org/1999/02/22-rdf-syntax-ns#"
   xmlns:svg="http://www.w3.org/2000/svg"
   xmlns="http://www.w3.org/2000/svg"
   xmlns:xlink="http://www.w3.org/1999/xlink"
   xmlns:sodipodi="http://sodipodi.sourceforge.net/DTD/sodipodi-0.dtd"
   xmlns:inkscape="http://www.inkscape.org/namespaces/inkscape"
   width="64"
   height="64"
   id="svg2"
   version="1.1"
   inkscape:version="0.48.4 r9939"
   sodipodi:docname="wall.svg"
   inkscape:export-filename="/home/rs/apps/games/tkBoulderDash/images/png/wall.png"
   inkscape:export-xdpi="90"
   inkscape:export-ydpi="90">
  <defs
     id="defs4" />
  <sodipodi:namedview
     id="base"
     pagecolor="#ffffff"
     bordercolor="#666666"
     borderopacity="1.0"
     inkscape:pageopacity="0.0"
     inkscape:pageshadow="2"
     inkscape:zoom="4.8812517"
     inkscape:cx="29.999972"
     inkscape:cy="32"
     inkscape:document-units="px"
     inkscape:current-layer="layer1"
     showgrid="true"
     inkscape:window-width="1366"
     inkscape:window-height="744"
     inkscape:window-x="0"
     inkscape:window-y="24"
     inkscape:window-maximized="1"
     showguides="true"
     inkscape:guide-bbox="true">
    <inkscape:grid
       type="xygrid"
       id="grid2985"
       empspacing="5"
       visible="true"
       enabled="true"
       snapvisiblegridlinesonly="true" />
    <sodipodi:guide
       orientation="1,0"
       position="64,-10"
       id="guide3929" />
  </sodipodi:namedview>
  <metadata
     id="metadata7">
    <rdf:RDF>
      <cc:Work
         rdf:about="">
        <dc:format>image/svg+xml</dc:format>
        <dc:type
           rdf:resource="http://purl.org/dc/dcmitype/StillImage" />
        <dc:title></dc:title>
      </cc:Work>
    </rdf:RDF>
  </metadata>
  <g
     inkscape:label="fond"
     inkscape:groupmode="layer"
     id="layer1"
     transform="translate(0,-988.36218)">
    <rect
       style="fill:#502d16;fill-opacity:1;stroke:none"
       id="rect3777"
       width="64"
       height="64"
       x="0"
       y="0"
       transform="translate(0,988.36218)" />
  </g>
  <g
     inkscape:groupmode="layer"
     id="layer2"
     inkscape:label="briques"
     sodipodi:insensitive="true">
    <g
       id="g3913"
       transform="matrix(1.2040805,0,0,1,-0.06123522,0)">
      <path
         sodipodi:nodetypes="zzzzzzzz"
         inkscape:connector-curvature="0"
         id="rect3067"
         d="M -7.9710803,3.3835397 C -5.4036376,1.6421928 10.212227,4.6168896 18.071235,3.6273019 25.930243,2.6377142 41.069243,0.07983902 39.103598,8.7751258 37.137952,17.470412 41.658933,23.205367 38.055846,28.818739 34.452758,34.432111 26.39815,29.376221 19.350271,30.078676 12.302392,30.781132 4.6900884,31.439953 -4.3103403,30.499858 -13.310769,29.559763 -6.6013091,16.427952 -7.9987171,11.906176 -9.3961249,7.3844011 -10.538523,5.1248866 -7.9710803,3.3835397 z"
         style="fill:#da9d2a;fill-opacity:1;stroke:#000000;stroke-width:0.91132277;stroke-opacity:1" />
      <path
         style="fill:#e8c580;fill-opacity:1;stroke:none"
         d="M -5,5 C -2.7558584,5.5121907 8.7312456,6.6232038 14.968616,6.0147375 21.205988,5.4062713 39.068428,2.828929 37,8 35,13 37,15 36,17 34.036824,18.996652 36.292494,6.8568983 28,8 15.15773,9.7702781 4.8049973,8.6694615 0,8 -7.7070952,6.9262006 -4.0481119,13.67883 -6,14 -7.8043886,9.4752477 -9.2686824,4.025739 -5,5 z"
         id="path3901"
         inkscape:connector-curvature="0"
         sodipodi:nodetypes="scscsscs" />
      <path
         sodipodi:nodetypes="saaas"
         inkscape:connector-curvature="0"
         id="path3903"
         d="M 22.495791,26.895709 C 25.477215,25.404997 29.834712,28.497325 33,27 34.200209,26.432247 34.272202,23.380273 35.495791,23.895709 36.765754,24.430681 36.070446,27.13216 35,28 31.749694,30.635111 20.495791,27.895709 22.495791,26.895709 z"
         style="fill:#e8c580;fill-opacity:1;stroke:none" />
    </g>
    <g
       id="g3918"
       transform="matrix(1.5128191,0,0,1,-4.4102389,0)">
      <path
         sodipodi:nodetypes="zsssz"
         inkscape:connector-curvature="0"
         id="rect3839"
         d="m 17.60612,34.915643 c 6.928232,-1.43683 15.790953,2.487419 27.712929,-1.198581 6.619085,-2.046468 4.906989,10.871703 5.938484,17.978708 1.648621,11.358998 -4.702331,8.496264 -31.671918,10.787225 -9.287853,0.788967 -8.907727,-26.130522 -1.979495,-27.567352 z"
         style="fill:#da9d2a;fill-opacity:1;stroke:#000000;stroke-width:0.81302983;stroke-opacity:1" />
      <path
         style="fill:#eac37e;fill-opacity:1;stroke:none"
         d="m 19,36 c 5.117729,0.570955 21.489425,1.564068 26,0 2.674807,-0.927505 5.214557,10.798346 3.598874,9.559449 C 47.930074,45.046617 48.496687,40.249184 46,39 40.858386,36.427462 27,39 23,38 c -7.335386,-1.833846 -8,8.956635 -8,6 0,-3 1.681054,-8.258711 4,-8 z"
         id="path3907"
         inkscape:connector-curvature="0"
         sodipodi:nodetypes="sssssss" />
      <path
         style="fill:#e8c580;fill-opacity:1;stroke:none"
         d="M 24.591952,59.246114 C 26.278216,58.447565 20.712046,59.741664 19,59 17.9456,58.543231 17.481146,55.940893 16.533863,56.591318 15.514211,57.291434 16.929931,59.379674 18,60 c 1.913381,1.1092 5,0 6.591952,-0.753886 z"
         id="path3909"
         inkscape:connector-curvature="0"
         sodipodi:nodetypes="saaas" />
    </g>
    <use
       x="0"
       y="0"
       xlink:href="#g3913"
       id="use3923"
       transform="translate(62,0)"
       width="64"
       height="64" />
    <use
       x="0"
       y="0"
       xlink:href="#g3918"
       id="use3931"
       transform="translate(-64,0)"
       width="64"
       height="64" />
  </g>
</svg>
